<svg width="19" height="20" viewBox="0 0 19 20" fill="none" xmlns="http://www.w3.org/2000/svg">
<g clip-path="url(#clip0_39_631)">
<path d="M19 18.125C19 19.1606 18.2025 20 17.2188 20H1.78125C0.79748 20 0 19.1606 0 18.125V7.84079C3.28126e-06 7.55647 0.0614343 7.27587 0.179646 7.02022C0.297857 6.76457 0.469753 6.54057 0.68233 6.36516C1.60684 5.60231 2.37084 4.98372 6.77569 1.61864C7.40005 1.13946 8.63895 -0.0135486 9.5 0.000123256C10.3609 -0.0137049 11.6002 1.13965 12.2243 1.6186C16.6287 4.98333 17.3938 5.60278 18.3177 6.36516C18.5302 6.54057 18.7021 6.76457 18.8204 7.02022C18.9386 7.27587 19 7.55647 19 7.84079V18.125ZM16.5632 10.4451C16.4681 10.2995 16.2774 10.2656 16.1424 10.3706C15.2946 11.0297 14.0842 11.9607 12.2243 13.3815C11.5999 13.8607 10.361 15.0136 9.5 14.9999C8.63865 15.0133 7.40113 13.8615 6.77569 13.3815C4.91599 11.9608 3.70548 11.0298 2.85761 10.3706C2.72257 10.2656 2.53194 10.2995 2.43682 10.4451L2.10017 10.9606C2.05653 11.0274 2.03926 11.1094 2.05199 11.1893C2.06472 11.2693 2.10647 11.3408 2.16841 11.389C3.01773 12.0491 4.22627 12.9784 6.07614 14.3916C6.8285 14.969 8.17371 16.2593 9.5 16.25C10.8257 16.2594 12.1704 14.9698 12.9238 14.3916C14.7737 12.9784 15.9823 12.0491 16.8316 11.389C16.8935 11.3408 16.9352 11.2693 16.948 11.1893C16.9607 11.1094 16.9434 11.0274 16.8998 10.9606L16.5632 10.4451Z" fill="#7E9D25"/>
</g>
<defs>
<clipPath id="clip0_39_631">
<rect width="19" height="20" fill="white"/>
</clipPath>
</defs>
</svg>
