<svg width="27" height="24" viewBox="0 0 27 24" fill="none" xmlns="http://www.w3.org/2000/svg">
<path d="M19.8 22.56H7.20001C5.15251 22.56 3.28501 21.16 2.94751 19.36L1.45126 11.4C1.21501 10.16 1.89001 8.57001 3.00376 7.78001L10.8 2.23001C12.3075 1.15001 14.6813 1.16001 16.2 2.24001L23.9963 7.78001C25.0988 8.57001 25.7738 10.16 25.5488 11.4L24.0525 19.36C23.715 21.13 21.8138 22.56 19.8 22.56ZM13.4888 2.94001C12.8925 2.94001 12.2963 3.10001 11.8575 3.41001L4.06126 8.96001C3.42001 9.42001 2.98126 10.44 3.11626 11.16L4.61251 19.12C4.81501 20.17 5.99626 21.06 7.20001 21.06H19.8C21.0038 21.06 22.185 20.17 22.3875 19.11L23.8838 11.15C24.0188 10.43 23.5688 9.4 22.9388 8.95001L15.1425 3.41001C14.6925 3.10001 14.0963 2.94001 13.4888 2.94001Z" fill="#3E5700"/>
<path d="M13.5 16.25C11.4863 16.25 9.84375 14.79 9.84375 13C9.84375 11.21 11.4863 9.75 13.5 9.75C15.5138 9.75 17.1562 11.21 17.1562 13C17.1562 14.79 15.5138 16.25 13.5 16.25ZM13.5 11.25C12.42 11.25 11.5312 12.04 11.5312 13C11.5312 13.96 12.42 14.75 13.5 14.75C14.58 14.75 15.4688 13.96 15.4688 13C15.4688 12.04 14.58 11.25 13.5 11.25Z" fill="#3E5700"/>
</svg>
