<svg width="16" height="16" viewBox="0 0 16 16" fill="none" xmlns="http://www.w3.org/2000/svg">
<path d="M10.16 14.8467H10.0733C7.11334 14.8467 5.68667 13.68 5.44001 11.0667C5.41334 10.7933 5.61334 10.5467 5.89334 10.52C6.16667 10.4933 6.41334 10.7 6.44001 10.9733C6.63334 13.0667 7.62001 13.8467 10.08 13.8467H10.1667C12.88 13.8467 13.84 12.8867 13.84 10.1733V5.82667C13.84 3.11334 12.88 2.15334 10.1667 2.15334H10.08C7.60667 2.15334 6.62001 2.94667 6.44001 5.08C6.40667 5.35334 6.18001 5.56 5.89334 5.53334C5.82764 5.5282 5.76359 5.51015 5.70488 5.48021C5.64617 5.45026 5.59395 5.40902 5.55121 5.35885C5.50847 5.30868 5.47606 5.25057 5.45583 5.18785C5.43561 5.12512 5.42796 5.05902 5.43334 4.99334C5.66001 2.34 7.09334 1.15334 10.0733 1.15334H10.16C13.4333 1.15334 14.8333 2.55334 14.8333 5.82667V10.1733C14.8333 13.4467 13.4333 14.8467 10.16 14.8467Z" fill="#3E5700"/>
<path d="M9.92001 8.5H1.33334C1.06001 8.5 0.833344 8.27333 0.833344 8C0.833344 7.72667 1.06001 7.5 1.33334 7.5H9.92001C10.0526 7.5 10.1798 7.55268 10.2736 7.64645C10.3673 7.74022 10.42 7.86739 10.42 8C10.42 8.13261 10.3673 8.25978 10.2736 8.35355C10.1798 8.44732 10.0526 8.5 9.92001 8.5Z" fill="#3E5700"/>
<path d="M8.43334 10.7333C8.30668 10.7333 8.18001 10.6867 8.08001 10.5867C7.98702 10.4926 7.93488 10.3656 7.93488 10.2333C7.93488 10.101 7.98702 9.97409 8.08001 9.88L9.96001 8L8.08001 6.12C7.98702 6.02591 7.93488 5.89895 7.93488 5.76667C7.93488 5.63438 7.98702 5.50743 8.08001 5.41333C8.27334 5.22 8.59334 5.22 8.78668 5.41333L11.02 7.64667C11.2133 7.84 11.2133 8.16 11.02 8.35333L8.78668 10.5867C8.68668 10.6867 8.56001 10.7333 8.43334 10.7333Z" fill="#3E5700"/>
</svg>
