<svg width="19" height="22" viewBox="0 0 19 22" fill="none" xmlns="http://www.w3.org/2000/svg">
<path d="M15.0417 7.33333C15.6715 7.33333 16.2756 7.0436 16.721 6.52787C17.1664 6.01215 17.4167 5.31267 17.4167 4.58333C17.4167 3.85398 17.1664 3.15451 16.721 2.63878C16.2756 2.12306 15.6715 1.83333 15.0417 1.83333C14.4118 1.83333 13.8077 2.12306 13.3623 2.63878C12.9169 3.15451 12.6667 3.85398 12.6667 4.58333C12.6667 5.31267 12.9169 6.01215 13.3623 6.52787C13.8077 7.0436 14.4118 7.33333 15.0417 7.33333Z" stroke="#3E5700" stroke-width="1.5" stroke-linecap="round" stroke-linejoin="round"/>
<path d="M11.0833 1.83333H7.12501C3.16668 1.83333 1.58334 3.66666 1.58334 8.25V13.75C1.58334 18.3333 3.16668 20.1667 7.12501 20.1667H11.875C15.8333 20.1667 17.4167 18.3333 17.4167 13.75V9.16666" stroke="#3E5700" stroke-width="1.5" stroke-linecap="round" stroke-linejoin="round"/>
<path d="M5.39124 13.6858C5.11416 12.6775 5.43874 11.4217 6.35707 11.0825C6.83999 10.8992 7.43374 11.055 7.77416 11.5958C8.09082 11.0367 8.70832 10.9083 9.18332 11.0825C10.1017 11.4217 10.4262 12.6775 10.1492 13.6858C9.71374 15.29 8.19374 16.1242 7.77416 16.1242C7.34666 16.115 5.84249 15.2992 5.39124 13.6858Z" stroke="#3E5700" stroke-width="1.5" stroke-linecap="round" stroke-linejoin="round"/>
</svg>
