<svg width="16" height="16" viewBox="0 0 16 16" fill="none" xmlns="http://www.w3.org/2000/svg">
<path d="M2.93274 3.81673C2.79135 3.81673 2.64251 3.75719 2.53833 3.65301C2.32251 3.43719 2.32251 3.07999 2.53833 2.86417L5.23972 0.162776C5.45553 -0.053038 5.81274 -0.053038 6.02856 0.162776C6.24437 0.37859 6.24437 0.735799 6.02856 0.951613L3.32716 3.65301C3.21553 3.75719 3.07414 3.81673 2.93274 3.81673Z" fill="#3E5700"/>
<path d="M13.0672 3.81673C12.9258 3.81673 12.7845 3.76464 12.6728 3.65301L9.97143 0.951613C9.75562 0.735799 9.75562 0.37859 9.97143 0.162776C10.1872 -0.053038 10.5445 -0.053038 10.7603 0.162776L13.4617 2.86417C13.6775 3.07999 13.6775 3.43719 13.4617 3.65301C13.3575 3.75719 13.2086 3.81673 13.0672 3.81673Z" fill="#3E5700"/>
<path d="M14.1098 6.95731C14.0577 6.95731 14.0056 6.95731 13.9535 6.95731H13.7823H2.04651C1.52558 6.96475 0.930233 6.96475 0.498605 6.53313C0.156279 6.19824 0 5.67731 0 4.9108C0 2.86429 1.49581 2.86429 2.21023 2.86429H13.7898C14.5042 2.86429 16 2.86429 16 4.9108C16 5.68475 15.8437 6.19824 15.5014 6.53313C15.1144 6.9201 14.5935 6.95731 14.1098 6.95731ZM2.21023 5.84103H13.9609C14.2958 5.84847 14.6084 5.84847 14.7126 5.74429C14.7647 5.6922 14.8763 5.51359 14.8763 4.9108C14.8763 4.06987 14.6679 3.98057 13.7823 3.98057H2.21023C1.32465 3.98057 1.11628 4.06987 1.11628 4.9108C1.11628 5.51359 1.23535 5.6922 1.28 5.74429C1.38419 5.84103 1.70419 5.84103 2.03163 5.84103H2.21023Z" fill="#3E5700"/>
<path d="M6.33286 12.6875C6.02774 12.6875 5.77472 12.4345 5.77472 12.1293V9.48748C5.77472 9.18236 6.02774 8.92934 6.33286 8.92934C6.638 8.92934 6.89102 9.18236 6.89102 9.48748V12.1293C6.89102 12.4419 6.638 12.6875 6.33286 12.6875Z" fill="#3E5700"/>
<path d="M9.75583 12.6875C9.45072 12.6875 9.19769 12.4345 9.19769 12.1293V9.48748C9.19769 9.18236 9.45072 8.92934 9.75583 8.92934C10.0609 8.92934 10.314 9.18236 10.314 9.48748V12.1293C10.314 12.4419 10.0609 12.6875 9.75583 12.6875Z" fill="#3E5700"/>
<path d="M10.1512 15.9991H5.66379C2.99961 15.9991 2.40426 14.414 2.17356 13.0373L1.12426 6.60004C1.07216 6.29493 1.28054 6.01214 1.58565 5.96004C1.89077 5.90795 2.17356 6.11632 2.22565 6.42144L3.27496 12.8512C3.49077 14.1684 3.93728 14.8828 5.66379 14.8828H10.1512C12.0638 14.8828 12.2796 14.2131 12.5252 12.9182L13.7754 6.40655C13.8349 6.10144 14.1252 5.90051 14.4303 5.96748C14.7354 6.02702 14.9289 6.31725 14.8694 6.62237L13.6191 13.134C13.3289 14.6447 12.8452 15.9991 10.1512 15.9991Z" fill="#3E5700"/>
</svg>
