<svg width="34" height="7" viewBox="0 0 34 7" fill="none" xmlns="http://www.w3.org/2000/svg">
<path d="M0.819 7V0.34H3.006C4.473 0.34 5.607 0.853 5.607 2.437C5.607 3.958 4.473 4.633 3.042 4.633H2.151V7H0.819ZM2.151 3.58H2.952C3.87 3.58 4.311 3.193 4.311 2.437C4.311 1.654 3.825 1.402 2.907 1.402H2.151V3.58ZM6.82193 7V0.34H10.9079V1.447H8.15393V2.986H10.4849V4.111H8.15393V5.884H11.0069V7H6.82193ZM13.682 7V1.447H11.801V0.34H16.895V1.447H15.014V7H13.682ZM17.984 7V0.34H20.297C21.692 0.34 22.799 0.826 22.799 2.356C22.799 3.841 21.692 4.489 20.297 4.489H19.316V7H17.984ZM19.316 3.436H20.171C21.035 3.436 21.503 3.067 21.503 2.356C21.503 1.645 21.035 1.402 20.171 1.402H19.316V3.436ZM21.602 7L20.054 4.147L20.981 3.31L23.087 7H21.602ZM24.1188 7V0.34H28.2048V1.447H25.4508V2.986H27.7818V4.111H25.4508V5.884H28.3038V7H24.1188ZM29.6559 7V0.34H33.7419V1.447H30.9879V2.986H33.3189V4.111H30.9879V5.884H33.8409V7H29.6559Z" fill="#3E5700"/>
</svg>
