<svg width="22" height="29" viewBox="0 0 22 29" fill="none" xmlns="http://www.w3.org/2000/svg">
<path d="M20.5398 7.34068C20.3231 6.99597 20.1185 6.67051 19.9728 6.34879C19.8181 6.00798 19.7047 5.63308 19.5846 5.2362C19.3297 4.39418 19.0664 3.5235 18.3655 2.88193C17.6638 2.24065 16.711 1.99947 15.7895 1.76628C15.3563 1.65657 14.9469 1.55297 14.5747 1.41199C14.2236 1.27883 13.8681 1.09175 13.4916 0.893676C12.6954 0.474818 11.7929 0 10.7582 0C9.72379 0 8.82138 0.474592 8.02524 0.893336C7.6485 1.09152 7.29263 1.27866 6.94109 1.41194C6.56881 1.55309 6.15962 1.65662 5.72634 1.76634C4.80517 1.99953 3.85249 2.2407 3.15083 2.88204C2.44974 3.52333 2.18601 4.39492 1.93107 5.23773C1.81113 5.6341 1.69787 6.00855 1.54362 6.34907C1.39798 6.67051 1.19332 6.99602 0.976652 7.34068C0.518854 8.06897 0 8.89428 0 9.84051C0 10.7869 0.519102 11.6124 0.977023 12.3406C1.19357 12.685 1.39804 13.0102 1.54362 13.3312C1.69781 13.6717 1.81107 14.046 1.93095 14.4423C2.18595 15.2852 2.44962 16.1567 3.15071 16.7981C3.85162 17.4397 4.804 17.6807 5.72504 17.9139C6.15881 18.0237 6.56843 18.1274 6.94127 18.269C7.29213 18.4019 7.64751 18.5888 8.02369 18.7867C8.28321 18.9232 8.54948 19.0627 8.82473 19.1901V28.0343H1.62369V29H19.1895V28.0343H12.691V19.191C12.966 19.0638 13.2317 18.924 13.4909 18.7876C13.8676 18.5894 14.2234 18.4022 14.5747 18.2689C14.9475 18.1275 15.3572 18.0237 15.7911 17.914C16.7119 17.6809 17.664 17.4399 18.3649 16.7989C19.0663 16.1573 19.3298 15.2861 19.5847 14.4436C19.7047 14.0469 19.8181 13.6723 19.9728 13.3313C20.1183 13.0102 20.3229 12.6849 20.5394 12.3406C20.9973 11.6123 21.5164 10.7868 21.5164 9.84046C21.5165 8.89428 20.9976 8.06891 20.5398 7.34068ZM11.6353 14.378V28.0343H9.88052V15.9843C9.88052 15.9573 9.87705 15.3153 9.57437 14.6694C9.21806 13.909 8.58552 13.4328 7.76467 13.2942L7.75234 12.618C8.7877 12.8478 9.90745 13.6365 10.3052 13.9712L11.1912 14.7193V13.6164C11.1912 12.8716 11.4214 12.3228 11.895 11.9385C12.5485 11.4082 13.5236 11.3143 14.0945 11.3099V11.9946C11.6651 12.2604 11.6353 14.3554 11.6353 14.378ZM19.6242 11.8592C19.4006 12.2149 19.1692 12.5828 18.9975 12.9614C18.8179 13.3573 18.6905 13.7787 18.5672 14.1861C18.3387 14.9412 18.123 15.6544 17.6184 16.116C17.1143 16.5771 16.3348 16.7743 15.5096 16.9832C15.0639 17.096 14.6031 17.2126 14.1702 17.3769C13.756 17.5341 13.3537 17.7458 12.9645 17.9505C12.874 17.9981 12.7827 18.0461 12.691 18.0936V14.3817C12.691 14.3779 12.7004 13.9927 12.9451 13.6288C13.2556 13.1669 13.8199 12.9327 14.6223 12.9327H15.1502V10.4216L14.6875 10.3689C14.5999 10.3589 12.5294 10.1373 11.1992 11.212C10.7203 11.5989 10.4015 12.0957 10.246 12.6951C10.1189 12.6118 9.97959 12.5245 9.8303 12.4371C8.86838 11.874 7.98821 11.5884 7.21429 11.5884H6.67754L6.72541 14.2176H7.24457C7.88839 14.2176 8.32959 14.4826 8.59344 15.0277C8.81841 15.4926 8.82467 15.9809 8.82473 15.9842V18.0931C8.73252 18.0454 8.64082 17.9973 8.54998 17.9495C8.16122 17.745 7.75928 17.5336 7.34569 17.3769C6.91297 17.2126 6.45214 17.096 6.00661 16.9831C5.18123 16.7741 4.40156 16.5768 3.89738 16.1153C3.39295 15.6539 3.17709 14.9402 2.94853 14.1847C2.82537 13.7777 2.69811 13.3569 2.51891 12.9613C2.34726 12.5827 2.11598 12.2148 1.89219 11.8591C1.46207 11.175 1.05573 10.5289 1.05573 9.84034C1.05573 9.15199 1.46194 8.50595 1.89188 7.8219C2.11573 7.46586 2.34713 7.09769 2.51885 6.71871C2.69805 6.3233 2.82537 5.90229 2.94853 5.49516C3.17709 4.73963 3.39295 4.02613 3.89719 3.5649C4.40205 3.10351 5.18216 2.906 6.00797 2.69694C6.45301 2.58429 6.91316 2.46777 7.34538 2.30391C7.75984 2.14685 8.16227 1.93507 8.55159 1.73037C9.29931 1.33723 10.0056 0.965666 10.7582 0.965666C11.5108 0.965666 12.2172 1.33728 12.9652 1.73077C13.3541 1.93541 13.7563 2.14696 14.1704 2.30408C14.6028 2.46795 15.063 2.5844 15.508 2.69706C16.334 2.90617 17.1143 3.10362 17.6189 3.56485C18.123 4.02624 18.3387 4.73912 18.567 5.49386C18.6903 5.90156 18.8179 6.32308 18.9975 6.71888C19.1692 7.09798 19.4008 7.46608 19.6246 7.82218C20.0546 8.50623 20.4607 9.15227 20.4607 9.84063C20.4607 10.529 20.0544 11.1751 19.6242 11.8592Z" fill="#3E5700"/>
<path d="M22.0001 28.0343H20.244V29H22.0001V28.0343Z" fill="#3E5700"/>
<path d="M10.4071 3.61176C9.34093 3.61176 8.47357 4.40512 8.47357 5.3803C8.47357 6.35514 9.34093 7.14817 10.4071 7.14817C11.4728 7.14817 12.3398 6.35514 12.3398 5.3803C12.3398 4.40506 11.4728 3.61176 10.4071 3.61176ZM10.4071 6.18245C9.92307 6.18245 9.52936 5.82261 9.52936 5.38025C9.52936 4.9376 9.92307 4.57742 10.4071 4.57742C10.8907 4.57742 11.2841 4.93754 11.2841 5.38025C11.2841 5.82255 10.8907 6.18245 10.4071 6.18245Z" fill="#3E5700"/>
<path d="M16.0279 6.56674C14.9618 6.56674 14.0944 7.36011 14.0944 8.33529C14.0944 9.31013 14.9618 10.1032 16.0279 10.1032C17.0937 10.1032 17.9607 9.31013 17.9607 8.33529C17.9607 7.36011 17.0937 6.56674 16.0279 6.56674ZM16.0279 9.13743C15.5439 9.13743 15.1502 8.7776 15.1502 8.33523C15.1502 7.89259 15.5439 7.53241 16.0279 7.53241C16.5115 7.53241 16.9049 7.89253 16.9049 8.33523C16.9049 8.77765 16.5115 9.13743 16.0279 9.13743Z" fill="#3E5700"/>
<path d="M5.31191 7.66574C4.24578 7.66574 3.37842 8.45877 3.37842 9.43361C3.37842 10.4088 4.24578 11.2022 5.31191 11.2022C6.37767 11.2022 7.24465 10.4088 7.24465 9.43361C7.24465 8.45877 6.37767 7.66574 5.31191 7.66574ZM5.31191 10.2364C4.82791 10.2364 4.43421 9.87631 4.43421 9.43361C4.43421 8.99125 4.82791 8.63141 5.31191 8.63141C5.79553 8.63141 6.18892 8.99125 6.18892 9.43361C6.18886 9.87631 5.79553 10.2364 5.31191 10.2364Z" fill="#3E5700"/>
</svg>
