<svg width="31" height="31" viewBox="0 0 31 31" fill="none" xmlns="http://www.w3.org/2000/svg">
<path d="M31 15.4843C31 6.95244 24.0405 0 15.5 0C6.9595 0 0 6.95244 0 15.4843C0 19.9747 1.9375 24.0161 5.0065 26.8498C5.0065 26.8652 5.0065 26.8652 4.991 26.8807C5.146 27.0356 5.332 27.1594 5.487 27.2988C5.58 27.3762 5.6575 27.4536 5.7505 27.5156C6.0295 27.7478 6.3395 27.9646 6.634 28.1814C6.7425 28.2588 6.8355 28.3208 6.944 28.3982C7.2385 28.5995 7.5485 28.7853 7.874 28.9556C7.9825 29.0176 8.1065 29.095 8.215 29.1569C8.525 29.3272 8.8505 29.4821 9.1915 29.6214C9.3155 29.6834 9.4395 29.7453 9.5635 29.7918C9.9045 29.9311 10.2455 30.055 10.5865 30.1634C10.7105 30.2098 10.8345 30.2563 10.9585 30.2873C11.3305 30.3957 11.7025 30.4886 12.0745 30.5815C12.183 30.6124 12.2915 30.6434 12.4155 30.6589C12.8495 30.7518 13.2835 30.8137 13.733 30.8602C13.795 30.8602 13.857 30.8757 13.919 30.8912C14.446 30.9376 14.973 30.9686 15.5 30.9686C16.027 30.9686 16.554 30.9376 17.0655 30.8912C17.1275 30.8912 17.1895 30.8757 17.2515 30.8602C17.701 30.8137 18.135 30.7518 18.569 30.6589C18.6775 30.6434 18.786 30.597 18.91 30.5815C19.282 30.4886 19.6695 30.4111 20.026 30.2873C20.15 30.2408 20.274 30.1944 20.398 30.1634C20.739 30.0395 21.0955 29.9311 21.421 29.7918C21.545 29.7453 21.669 29.6834 21.793 29.6214C22.1185 29.4821 22.444 29.3272 22.7695 29.1569C22.8935 29.095 23.002 29.0176 23.1105 28.9556C23.4205 28.7698 23.7305 28.5995 24.0405 28.3982C24.149 28.3362 24.242 28.2588 24.3505 28.1814C24.6605 27.9646 24.955 27.7478 25.234 27.5156C25.327 27.4382 25.4045 27.3607 25.4975 27.2988C25.668 27.1594 25.8385 27.0201 25.9935 26.8807C25.9935 26.8652 25.9935 26.8652 25.978 26.8498C29.0625 24.0161 31 19.9747 31 15.4843ZM23.157 23.18C18.9565 20.3618 12.0745 20.3618 7.843 23.18C7.161 23.629 6.603 24.1555 6.138 24.7284C3.782 22.3438 2.325 19.0766 2.325 15.4843C2.325 8.22216 8.2305 2.32264 15.5 2.32264C22.7695 2.32264 28.675 8.22216 28.675 15.4843C28.675 19.0766 27.218 22.3438 24.862 24.7284C24.4125 24.1555 23.839 23.629 23.157 23.18Z" fill="#3E5700"/>
<path d="M15.5 7.6333C12.2915 7.6333 9.6875 10.2347 9.6875 13.4399C9.6875 16.5832 12.152 19.1381 15.4225 19.231H15.562H15.6705H15.7015C18.8325 19.1227 21.297 16.5832 21.3125 13.4399C21.3125 10.2347 18.7085 7.6333 15.5 7.6333Z" fill="#3E5700"/>
</svg>
