<svg width="93" height="16" viewBox="0 0 93 16" fill="none" xmlns="http://www.w3.org/2000/svg">
<path d="M65.962 0.506417C66.1891 -0.168807 67.0454 -0.168807 67.2724 0.506425L68.7369 5.09359C68.8394 5.39819 69.1004 5.6 69.3921 5.6H72.9908C73.6554 5.6 73.9456 6.53624 73.4232 6.99416L70.8621 9.6C70.6263 9.80664 70.5347 10.158 70.6345 10.4734L71.5695 14.9561C71.7972 15.6754 71.0595 16.2943 70.503 15.8509L67.0239 13.3557C66.7806 13.1618 66.4538 13.1618 66.2105 13.3557L62.7315 15.8509C62.1749 16.2943 61.4373 15.6754 61.6649 14.9561L62.5999 10.4734C62.6997 10.158 62.6082 9.80664 62.3724 9.6L59.8113 6.99416C59.2888 6.53624 59.5791 5.6 60.2436 5.6H63.8423C64.134 5.6 64.395 5.39819 64.4975 5.09359L65.962 0.506417Z" fill="#F7DF38"/>
<path d="M85.2701 0.506417C85.4972 -0.168807 86.3535 -0.168807 86.5805 0.506425L88.0451 5.09359C88.1475 5.39819 88.4086 5.6 88.7002 5.6H92.2989C92.9635 5.6 93.2538 6.53624 92.7313 6.99416L90.1702 9.6C89.9344 9.80664 89.8428 10.158 89.9426 10.4734L90.8776 14.9561C91.1053 15.6754 90.3676 16.2943 89.8111 15.8509L86.332 13.3557C86.0887 13.1618 85.7619 13.1618 85.5186 13.3557L82.0396 15.8509C81.483 16.2943 80.7454 15.6754 80.973 14.9561L81.908 10.4734C82.0078 10.158 81.9163 9.80664 81.6805 9.6L79.1194 6.99416C78.5969 6.53624 78.8872 5.6 79.5517 5.6H83.1504C83.4421 5.6 83.7031 5.39819 83.8056 5.09359L85.2701 0.506417Z" fill="#F7DF38"/>
<path d="M6.41954 0.506417C6.64657 -0.168807 7.5029 -0.168807 7.72993 0.506425L9.19447 5.09359C9.29691 5.39819 9.55797 5.6 9.84966 5.6H13.4484C14.1129 5.6 14.4032 6.53624 13.8807 6.99416L11.3196 9.6C11.0838 9.80664 10.9922 10.158 11.0921 10.4734L12.027 14.9561C12.2547 15.6754 11.517 16.2943 10.9605 15.8509L7.48146 13.3557C7.23816 13.1618 6.91131 13.1618 6.66801 13.3557L3.18897 15.8509C2.63242 16.2943 1.89479 15.6754 2.12242 14.9561L3.05743 10.4734C3.15724 10.158 3.06572 9.80664 2.82989 9.6L0.268799 6.99416C-0.253727 6.53624 0.0365919 5.6 0.701107 5.6H4.29979C4.59148 5.6 4.85255 5.39819 4.95498 5.09359L6.41954 0.506417Z" fill="#F7DF38"/>
<path d="M27.0499 0.506417C27.2769 -0.168807 28.1333 -0.168807 28.3603 0.506425L29.8248 5.09359C29.9273 5.39819 30.1883 5.6 30.48 5.6H34.0787C34.7433 5.6 35.0335 6.53624 34.5111 6.99416L31.9499 9.6C31.7141 9.80664 31.6226 10.158 31.7224 10.4734L32.6574 14.9561C32.8851 15.6754 32.1474 16.2943 31.5909 15.8509L28.1118 13.3557C27.8685 13.1618 27.5417 13.1618 27.2984 13.3557L23.8193 15.8509C23.2628 16.2943 22.5252 15.6754 22.7528 14.9561L23.6878 10.4734C23.7876 10.158 23.6961 9.80664 23.4603 9.6L20.8992 6.99416C20.3766 6.53624 20.667 5.6 21.3315 5.6H24.9302C25.2218 5.6 25.4829 5.39819 25.5853 5.09359L27.0499 0.506417Z" fill="#F7DF38"/>
<path d="M46.5138 0.506417C46.7408 -0.168807 47.5971 -0.168807 47.8242 0.506425L49.2887 5.09359C49.3911 5.39819 49.6522 5.6 49.9439 5.6H53.5426C54.2071 5.6 54.4974 6.53624 53.9749 6.99416L51.4138 9.6C51.178 9.80664 51.0865 10.158 51.1863 10.4734L52.1213 14.9561C52.349 15.6754 51.6113 16.2943 51.0548 15.8509L47.5757 13.3557C47.3324 13.1618 47.0055 13.1618 46.7622 13.3557L43.2832 15.8509C42.7267 16.2943 41.989 15.6754 42.2167 14.9561L43.1517 10.4734C43.2515 10.158 43.16 9.80664 42.9241 9.6L40.363 6.99416C39.8405 6.53624 40.1308 5.6 40.7953 5.6H44.394C44.6857 5.6 44.9468 5.39819 45.0492 5.09359L46.5138 0.506417Z" fill="#F7DF38"/>
</svg>
