<svg width="22" height="26" viewBox="0 0 22 26" fill="none" xmlns="http://www.w3.org/2000/svg">
<path d="M1.61334 25.179H0.439991C0.196973 25.179 0 25.3628 0 25.5895C0 25.8163 0.197027 26.0001 0.439991 26.0001H1.61334C1.85636 26.0001 2.05333 25.8163 2.05333 25.5895C2.05338 25.3628 1.85636 25.179 1.61334 25.179Z" fill="#F15C0F"/>
<path d="M20.3868 10.4H18.4801V8.43337C18.4801 6.87057 17.4192 5.47063 15.8401 4.94966C15.7453 4.91833 15.6416 4.91833 15.5468 4.94966C14.8402 5.1828 14.2373 5.5919 13.7868 6.11291V3.50706C13.7868 1.94426 12.7258 0.544321 11.1468 0.0233542C11.0519 -0.007978 10.9483 -0.007978 10.8534 0.0233542C9.27432 0.54427 8.21342 1.94426 8.21342 3.50706V3.92352C7.76293 3.4025 7.16004 2.99336 6.4534 2.76027C6.35854 2.72894 6.25491 2.72894 6.16004 2.76027C4.58094 3.28119 3.52004 4.68118 3.52004 6.24398V10.4H1.61334C0.723722 10.4 0 11.0753 0 11.9053V14.0948C0 14.8075 0.533552 15.406 1.24748 15.5611L3.3333 24.805C3.48961 25.4975 4.15352 26.0001 4.91202 26.0001H20.9734C21.2164 26.0001 21.4134 25.8164 21.4134 25.5896C21.4134 25.3628 21.2164 25.1791 20.9734 25.1791H18.5244C18.5885 25.0628 18.6369 24.9374 18.6668 24.805L20.7525 15.5611C21.4664 15.406 22 14.8076 22 14.0948V11.9053C22.0002 11.0753 21.2764 10.4 20.3868 10.4ZM13.7868 8.43337C13.7868 7.26687 14.5467 6.21707 15.6935 5.77618C16.8403 6.21707 17.6002 7.26687 17.6002 8.43337V10.4H16.1335V8.07369C16.1335 7.8469 15.9365 7.66317 15.6936 7.66317C15.4505 7.66317 15.2536 7.8469 15.2536 8.07369V10.4H13.7869V8.43337H13.7868ZM4.40002 6.24393C4.40002 5.07743 5.15994 4.02762 6.30672 3.58674C7.45351 4.02762 8.21342 5.07743 8.21342 6.24393V6.97894C8.21342 7.20573 8.41045 7.38946 8.65342 7.38946C8.89638 7.38946 9.09341 7.20573 9.09341 6.97894V3.50711C9.09341 2.34061 9.85332 1.29081 11.0001 0.849924C12.1469 1.29081 12.9068 2.34061 12.9068 3.50711V10.4H11.4402V4.24207C11.4402 4.01528 11.2431 3.83156 11.0002 3.83156C10.7571 3.83156 10.5602 4.01533 10.5602 4.24207V10.4H9.09352V8.62106C9.09352 8.39427 8.89649 8.21054 8.65352 8.21054C8.41056 8.21054 8.21353 8.39432 8.21353 8.62106V10.4H6.74688V5.88424C6.74688 5.65745 6.54985 5.47373 6.30689 5.47373C6.06392 5.47373 5.8669 5.65745 5.8669 5.88424V10.4H4.40024V6.24393H4.40002ZM21.1201 14.0947C21.1201 14.4699 20.7948 14.7755 20.3936 14.7789C20.3882 14.7789 20.3828 14.7789 20.3775 14.779H6.8934C6.65038 14.779 6.4534 14.9627 6.4534 15.1895C6.4534 15.4163 6.65043 15.6 6.8934 15.6H19.8446L19.5358 16.9684H12.1734C11.9304 16.9684 11.7334 17.1522 11.7334 17.3789C11.7334 17.6057 11.9304 17.7894 12.1734 17.7894H19.3504L19.0417 19.1579H14.5201C14.2771 19.1579 14.0801 19.3416 14.0801 19.5684C14.0801 19.7952 14.2771 19.9789 14.5201 19.9789H18.8564L18.5477 21.3473H16.2801C16.0371 21.3473 15.8401 21.531 15.8401 21.7578C15.8401 21.9846 16.0371 22.1683 16.2801 22.1683H18.3625L17.8057 24.6356C17.7347 24.9504 17.4329 25.1789 17.0881 25.1789H16.8668H4.91202C4.56722 25.1789 4.26548 24.9504 4.19439 24.6356L2.1556 15.6H5.13338C5.37639 15.6 5.57337 15.4163 5.57337 15.1895C5.57337 14.9627 5.37634 14.779 5.13338 14.779H1.6227C1.61737 14.7789 1.61198 14.7789 1.60659 14.7789C1.20535 14.7755 0.880037 14.4699 0.880037 14.0947V11.9052C0.880037 11.5279 1.209 11.221 1.61339 11.221H20.3868C20.7912 11.221 21.1202 11.5279 21.1202 11.9052L21.1201 14.0947Z" fill="#3E5700"/>
</svg>
