<svg width="25" height="27" viewBox="0 0 25 27" fill="none" xmlns="http://www.w3.org/2000/svg">
<path d="M21.4539 7.70752C21.2781 7.37788 21.0262 7.10317 20.723 6.9102C20.4198 6.71723 20.0755 6.61257 19.7238 6.60644H6.69671L6.10642 4.11802C6.04678 3.87781 5.91372 3.66652 5.72891 3.51857C5.54411 3.37061 5.31845 3.29471 5.08868 3.30323H3.0532C2.78328 3.30323 2.52441 3.41923 2.33355 3.62572C2.14269 3.83222 2.03546 4.11228 2.03546 4.4043C2.03546 4.69632 2.14269 4.97638 2.33355 5.18288C2.52441 5.38937 2.78328 5.50537 3.0532 5.50537H4.3152L7.12416 16.8024C7.1838 17.0426 7.31685 17.2539 7.50166 17.4018C7.68646 17.5498 7.91213 17.6257 8.1419 17.6172H17.3015C17.4895 17.6166 17.6736 17.5596 17.8335 17.4528C17.9934 17.3459 18.1228 17.1932 18.2073 17.0116L21.5455 9.78854C21.6902 9.46044 21.7576 9.09869 21.7416 8.73557C21.7256 8.37245 21.6268 8.01926 21.4539 7.70752Z" fill="#3E5700"/>
<path d="M7.63305 23.1225C8.47618 23.1225 9.15966 22.3831 9.15966 21.4709C9.15966 20.5588 8.47618 19.8193 7.63305 19.8193C6.78993 19.8193 6.10645 20.5588 6.10645 21.4709C6.10645 22.3831 6.78993 23.1225 7.63305 23.1225Z" fill="#3E5700"/>
<path d="M17.8104 23.1225C18.6535 23.1225 19.337 22.3831 19.337 21.4709C19.337 20.5588 18.6535 19.8193 17.8104 19.8193C16.9673 19.8193 16.2838 20.5588 16.2838 21.4709C16.2838 22.3831 16.9673 23.1225 17.8104 23.1225Z" fill="#3E5700"/>
</svg>
