<svg width="29" height="29" viewBox="0 0 29 29" fill="none" xmlns="http://www.w3.org/2000/svg">
<path d="M14.5 27.5232C21.9376 27.5232 28 21.6039 28 14.2616C28 6.91936 21.9376 1 14.5 1C7.0624 1 1 6.91936 1 14.2616C1 21.6039 7.0624 27.5232 14.5 27.5232Z" stroke="#3E5700" stroke-width="2"/>
<mask id="path-2-outside-1_157_18" maskUnits="userSpaceOnUse" x="11.876" y="6.1311" width="5" height="4" fill="black">
<rect fill="white" x="11.876" y="6.1311" width="5" height="4"/>
<path d="M13.876 8.1311H14.501Z"/>
</mask>
<path d="M13.876 6.1311C12.7714 6.1311 11.876 7.02653 11.876 8.1311C11.876 9.23567 12.7714 10.1311 13.876 10.1311V6.1311ZM14.501 10.1311C15.6055 10.1311 16.501 9.23567 16.501 8.1311C16.501 7.02653 15.6055 6.1311 14.501 6.1311V10.1311ZM13.876 10.1311H14.501V6.1311H13.876V10.1311Z" fill="#3E5700" mask="url(#path-2-outside-1_157_18)"/>
<mask id="path-4-outside-2_157_18" maskUnits="userSpaceOnUse" x="9.99902" y="11.035" width="7" height="11" fill="black">
<rect fill="white" x="9.99902" y="11.035" width="7" height="11"/>
<path d="M11.999 13.035H14.499V19.1658"/>
</mask>
<path d="M11.999 11.035C10.8945 11.035 9.99902 11.9305 9.99902 13.035C9.99902 14.1396 10.8945 15.035 11.999 15.035V11.035ZM14.499 13.035H16.499C16.499 11.9305 15.6036 11.035 14.499 11.035V13.035ZM12.499 19.1658C12.499 20.2704 13.3945 21.1658 14.499 21.1658C15.6036 21.1658 16.499 20.2704 16.499 19.1658H12.499ZM11.999 15.035H14.499V11.035H11.999V15.035ZM12.499 13.035V19.1658H16.499V13.035H12.499Z" fill="#3E5700" mask="url(#path-4-outside-2_157_18)"/>
<mask id="path-6-outside-3_157_18" maskUnits="userSpaceOnUse" x="9.99902" y="17.1661" width="9" height="4" fill="black">
<rect fill="white" x="9.99902" y="17.1661" width="9" height="4"/>
<path d="M11.999 19.1661H16.999Z"/>
</mask>
<path d="M11.999 17.1661C10.8945 17.1661 9.99902 18.0616 9.99902 19.1661C9.99902 20.2707 10.8945 21.1661 11.999 21.1661V17.1661ZM16.999 21.1661C18.1036 21.1661 18.999 20.2707 18.999 19.1661C18.999 18.0616 18.1036 17.1661 16.999 17.1661V21.1661ZM11.999 21.1661H16.999V17.1661H11.999V21.1661Z" fill="#3E5700" mask="url(#path-6-outside-3_157_18)"/>
</svg>
