<svg width="13" height="16" viewBox="0 0 13 16" fill="none" xmlns="http://www.w3.org/2000/svg">
<path d="M6.50457 14.3133C4.78101 14.3133 3.05747 14.0396 1.4227 13.4922C0.801339 13.2777 0.327921 12.8413 0.120801 12.2717C-0.0937171 11.7021 -0.0197455 11.0734 0.320524 10.5112L1.1712 9.09832C1.34873 8.80243 1.51147 8.21066 1.51147 7.86299V5.72523C1.51147 2.97349 3.75281 0.732147 6.50457 0.732147C9.25632 0.732147 11.4977 2.97349 11.4977 5.72523V7.86299C11.4977 8.20326 11.6604 8.80243 11.8379 9.10572L12.6812 10.5112C12.9993 11.0438 13.0585 11.6873 12.8439 12.2717C12.6294 12.8561 12.1634 13.2999 11.579 13.4922C9.95165 14.0396 8.22811 14.3133 6.50457 14.3133ZM6.50457 1.84172C4.36677 1.84172 2.62104 3.58005 2.62104 5.72523V7.86299C2.62104 8.40299 2.39913 9.20188 2.12543 9.6679L1.27476 11.0808C1.11202 11.3545 1.06764 11.6429 1.1638 11.8871C1.25257 12.1386 1.47448 12.3309 1.77776 12.4344C4.86978 13.47 8.14674 13.47 11.2388 12.4344C11.5051 12.3457 11.7122 12.146 11.8083 11.8797C11.9045 11.6134 11.8823 11.3249 11.7344 11.0808L10.8837 9.6679C10.6026 9.18709 10.3881 8.39559 10.3881 7.8556V5.72523C10.3881 3.58005 8.64975 1.84172 6.50457 1.84172Z" fill="#3E5700"/>
<path d="M7.88021 2.04162C7.82843 2.04162 7.77665 2.03422 7.72487 2.01942C7.51035 1.96025 7.30323 1.91586 7.10351 1.88628C6.47475 1.80491 5.86818 1.84929 5.2986 2.01942C5.09148 2.086 4.86959 2.01942 4.72904 1.86408C4.5885 1.70874 4.54411 1.48683 4.62548 1.28711C4.92877 0.510404 5.66846 0 6.51174 0C7.35501 0 8.09473 0.503007 8.39801 1.28711C8.47198 1.48683 8.435 1.70874 8.29445 1.86408C8.18349 1.98244 8.02815 2.04162 7.88021 2.04162Z" fill="#3E5700"/>
<path d="M6.50429 16C5.77197 16 5.06184 15.7041 4.54406 15.1863C4.02626 14.6685 3.73038 13.9584 3.73038 13.2261H4.83995C4.83995 13.6625 5.01746 14.0915 5.32814 14.4022C5.63882 14.7129 6.06786 14.8904 6.50429 14.8904C7.42154 14.8904 8.16865 14.1433 8.16865 13.2261H9.27822C9.27822 14.7573 8.0355 16 6.50429 16Z" fill="#3E5700"/>
</svg>
