<svg width="15" height="18" viewBox="0 0 15 18" fill="none" xmlns="http://www.w3.org/2000/svg">
<path d="M7.37104 4.97589C7.37104 4.97589 4.91098 5.2211 3.62283 4.14764C2.33468 3.07418 2.62895 1.02412 2.62895 1.02412C2.62895 1.02412 5.08903 0.778893 6.3772 1.85236C7.66536 2.92581 7.37104 4.97589 7.37104 4.97589Z" stroke="#3E5700" stroke-linecap="round" stroke-linejoin="round"/>
<path d="M7.42895 4.97589C7.42895 4.97589 9.88903 5.2211 11.1772 4.14764C12.4653 3.07418 12.171 1.02412 12.171 1.02412C12.171 1.02412 9.71095 0.778893 8.42279 1.85236C7.13463 2.92581 7.42895 4.97589 7.42895 4.97589Z" stroke="#3E5700" stroke-linecap="round" stroke-linejoin="round"/>
<path d="M1 8.2C1 7.75816 1.35818 7.4 1.8 7.4H13C13.4418 7.4 13.8 7.75816 13.8 8.2V9.8C13.8 10.2418 13.4418 10.6 13 10.6H1.8C1.35818 10.6 1 10.2418 1 9.8V8.2Z" stroke="#3E5700" stroke-linecap="round" stroke-linejoin="round"/>
<path d="M1.79999 10.6H13L11.4 17H3.39999L1.79999 10.6Z" stroke="#3E5700" stroke-linecap="round" stroke-linejoin="round"/>
</svg>
